<?xml version="1.0" encoding="UTF-8"?>
<svg id="Layer_1" xmlns="http://www.w3.org/2000/svg" version="1.1" viewBox="0 0 350 75">
  <!-- Generator: Adobe Illustrator 29.4.0, SVG Export Plug-In . SVG Version: 2.1.0 Build 152)  -->
  <defs>
    <style>
      .st0 {
        fill: #2b2143;
      }
    </style>
  </defs>
  <g>
    <path class="st0" d="M68.12,55.45l10.12-38.5h12.65l10.12,38.5h-7.48l-2.09-8.47h-13.75l-2.09,8.47h-7.48ZM79.4,40.27h10.34l-4.67-18.75h-.99l-4.67,18.75Z"/>
    <path class="st0" d="M104.86,55.45v-8.25l14.96-12.43v-.88h-14.41v-5.72h22v8.25l-14.96,12.43v.88h15.4v5.72h-22.99Z"/>
    <path class="st0" d="M144.79,55.45c-1.8,0-3.25-.56-4.37-1.68-1.12-1.12-1.68-2.61-1.68-4.48v-15.4h-6.82v-5.72h6.82v-8.47h6.93v8.47h7.48v5.72h-7.48v14.19c0,1.1.51,1.65,1.54,1.65h5.28v5.72h-7.7Z"/>
    <path class="st0" d="M170.86,56.22c-2.71,0-5.11-.58-7.18-1.73-2.07-1.15-3.69-2.79-4.84-4.89-1.16-2.11-1.73-4.59-1.73-7.45v-.66c0-2.86.57-5.34,1.71-7.45,1.14-2.11,2.73-3.74,4.79-4.89,2.05-1.16,4.44-1.73,7.15-1.73s5.01.6,6.99,1.79c1.98,1.19,3.52,2.84,4.62,4.95,1.1,2.11,1.65,4.56,1.65,7.34v2.36h-19.86c.07,1.87.77,3.39,2.09,4.57,1.32,1.17,2.93,1.76,4.84,1.76s3.37-.42,4.29-1.26c.92-.84,1.61-1.78,2.09-2.8l5.66,2.97c-.51.95-1.26,1.99-2.23,3.11-.97,1.12-2.27,2.07-3.88,2.86-1.62.79-3.67,1.18-6.16,1.18ZM164.2,38.67h12.76c-.15-1.58-.78-2.84-1.9-3.79-1.12-.95-2.58-1.43-4.37-1.43s-3.36.48-4.46,1.43c-1.1.95-1.78,2.22-2.04,3.79Z"/>
    <path class="st0" d="M202.98,56.22c-2.64,0-5.03-.55-7.18-1.65-2.14-1.1-3.84-2.7-5.09-4.79-1.25-2.09-1.87-4.62-1.87-7.59v-.77c0-2.97.62-5.5,1.87-7.59,1.25-2.09,2.94-3.68,5.09-4.78,2.15-1.1,4.54-1.65,7.18-1.65s4.84.46,6.71,1.38c1.87.92,3.38,2.17,4.54,3.77,1.16,1.59,1.92,3.4,2.28,5.42l-6.71,1.43c-.15-1.1-.48-2.09-.99-2.97-.51-.88-1.24-1.58-2.17-2.09-.93-.51-2.1-.77-3.49-.77s-2.65.3-3.77.91c-1.12.6-2,1.5-2.64,2.7-.64,1.19-.96,2.65-.96,4.37v.55c0,1.72.32,3.18.96,4.37.64,1.19,1.52,2.09,2.64,2.69,1.12.61,2.37.91,3.77.91,2.09,0,3.68-.54,4.76-1.62s1.77-2.5,2.06-4.26l6.71,1.6c-.48,1.94-1.29,3.71-2.45,5.31-1.15,1.59-2.67,2.85-4.54,3.77-1.87.92-4.11,1.38-6.71,1.38Z"/>
    <path class="st0" d="M233.72,56.22c-3.56,0-6.47-.77-8.75-2.31s-3.65-3.74-4.12-6.6l6.38-1.65c.26,1.28.69,2.29,1.29,3.03.61.73,1.36,1.26,2.25,1.57s1.88.47,2.94.47c1.61,0,2.81-.28,3.58-.85.77-.57,1.16-1.27,1.16-2.12s-.37-1.49-1.1-1.95c-.73-.46-1.91-.83-3.52-1.13l-1.54-.27c-1.91-.37-3.65-.87-5.22-1.51-1.58-.64-2.84-1.53-3.79-2.67-.95-1.14-1.43-2.6-1.43-4.4,0-2.71.99-4.79,2.97-6.24,1.98-1.45,4.58-2.17,7.81-2.17,3.04,0,5.57.68,7.59,2.03,2.02,1.36,3.34,3.14,3.96,5.34l-6.43,1.98c-.29-1.39-.89-2.38-1.79-2.97-.9-.59-2.01-.88-3.33-.88s-2.33.23-3.03.69c-.7.46-1.04,1.09-1.04,1.9,0,.88.37,1.53,1.1,1.95.73.42,1.72.74,2.97.96l1.54.27c2.05.37,3.91.85,5.58,1.46,1.67.6,2.99,1.47,3.96,2.58.97,1.12,1.46,2.63,1.46,4.54,0,2.86-1.04,5.07-3.11,6.63-2.07,1.56-4.85,2.34-8.33,2.34Z"/>
    <path class="st0" d="M264.03,56.22c-2.64,0-5.03-.55-7.18-1.65-2.14-1.1-3.84-2.7-5.09-4.79-1.25-2.09-1.87-4.62-1.87-7.59v-.77c0-2.97.62-5.5,1.87-7.59,1.25-2.09,2.94-3.68,5.09-4.78,2.15-1.1,4.54-1.65,7.18-1.65s4.84.46,6.71,1.38c1.87.92,3.38,2.17,4.54,3.77,1.16,1.59,1.92,3.4,2.28,5.42l-6.71,1.43c-.15-1.1-.48-2.09-.99-2.97-.51-.88-1.24-1.58-2.17-2.09-.93-.51-2.1-.77-3.49-.77s-2.65.3-3.77.91c-1.12.6-2,1.5-2.64,2.7-.64,1.19-.96,2.65-.96,4.37v.55c0,1.72.32,3.18.96,4.37.64,1.19,1.52,2.09,2.64,2.69,1.12.61,2.37.91,3.77.91,2.09,0,3.68-.54,4.76-1.62s1.77-2.5,2.06-4.26l6.71,1.6c-.48,1.94-1.29,3.71-2.45,5.31-1.15,1.59-2.67,2.85-4.54,3.77-1.87.92-4.11,1.38-6.71,1.38Z"/>
    <path class="st0" d="M291.91,56.22c-1.94,0-3.69-.34-5.23-1.02-1.54-.68-2.76-1.67-3.66-2.97-.9-1.3-1.35-2.89-1.35-4.76s.45-3.44,1.35-4.7c.9-1.26,2.14-2.22,3.74-2.86,1.59-.64,3.42-.96,5.47-.96h7.48v-1.54c0-1.28-.4-2.34-1.21-3.16-.81-.83-2.09-1.24-3.85-1.24s-3.01.39-3.85,1.18c-.84.79-1.39,1.81-1.65,3.05l-6.38-2.14c.44-1.39,1.15-2.67,2.12-3.82.97-1.16,2.27-2.09,3.91-2.81,1.63-.71,3.62-1.07,5.97-1.07,3.59,0,6.44.9,8.53,2.69,2.09,1.8,3.13,4.4,3.13,7.81v10.17c0,1.1.51,1.65,1.54,1.65h2.2v5.72h-4.62c-1.36,0-2.47-.33-3.35-.99-.88-.66-1.32-1.54-1.32-2.64v-.05h-1.04c-.15.44-.48,1.02-.99,1.73-.51.71-1.32,1.35-2.42,1.9-1.1.55-2.6.82-4.51.82ZM293.12,50.61c1.94,0,3.53-.54,4.76-1.62,1.23-1.08,1.84-2.52,1.84-4.32v-.55h-6.99c-1.28,0-2.29.28-3.02.83-.73.55-1.1,1.32-1.1,2.31s.39,1.8,1.16,2.42c.77.62,1.89.94,3.36.94Z"/>
    <path class="st0" d="M315.23,55.45v-27.28h6.82v3.57h.99c.44-.95,1.26-1.86,2.47-2.72,1.21-.86,3.04-1.29,5.5-1.29,2.13,0,3.99.49,5.58,1.46,1.59.97,2.83,2.31,3.71,4.02.88,1.7,1.32,3.69,1.32,5.97v16.28h-6.93v-15.73c0-2.05-.5-3.59-1.51-4.62-1.01-1.03-2.45-1.54-4.32-1.54-2.13,0-3.78.71-4.95,2.12-1.17,1.41-1.76,3.38-1.76,5.91v13.86h-6.93Z"/>
  </g>
  <path class="st0" d="M59.86,49.88c-1.64-1.64-4.28-1.67-5.95-.09h0s-.03.03-.03.03c-.02.01-.03.03-.05.04h0s-13.98,13.99-13.98,13.99l-.1.09c-1.01.91-2.57.89-3.55-.09l-24.51-24.51-.09-.1c-.91-1.02-.89-2.58.09-3.56l24.54-24.54.1-.09h0c1.01-.9,2.57-.88,3.55.1l14.1,14.1s.01-.01.02-.02c1.68,1.51,4.25,1.46,5.86-.16,1.61-1.61,1.66-4.19.16-5.87,0,0,.01,0,.01,0l-14.65-14.65c-4.04-4.04-10.59-4.04-14.63,0L5.08,30.21c-4.04,4.04-4.04,10.59,0,14.63l25.62,25.61c4.04,4.04,10.59,4.04,14.63,0l14.55-14.55h0s.03-.03.04-.04l.21-.21h0s0-.01,0-.01c1.41-1.67,1.32-4.18-.26-5.76Z"/>
</svg>