<svg xmlns="http://www.w3.org/2000/svg" viewBox="0 0 20 20" fill="none">
  <path fill-rule="evenodd" clip-rule="evenodd" d="M 14.584 3.075 L 18.143 6.634 L 18.136 17.826 L 14.569 21.393 C 14.008 21.955 13.272 22.235 12.536 22.235 C 11.8 22.235 11.065 21.954 10.504 21.393 L 6.944 17.834 L 3.383 14.275 C 2.822 13.714 2.542 12.978 2.542 12.242 C 2.542 11.507 2.822 10.771 3.383 10.21 L 6.951 6.642 L 10.518 3.075 C 11.08 2.513 11.815 2.233 12.551 2.233 C 13.287 2.233 14.023 2.513 14.584 3.075 Z M 12.069 4.88 L 12.054 4.894 L 12.039 4.907 L 8.629 8.318 L 5.218 11.729 C 5.082 11.865 5.012 12.041 5.008 12.219 C 5.004 12.396 5.065 12.576 5.191 12.718 L 5.205 12.733 L 5.218 12.747 L 8.624 16.153 L 12.03 19.559 C 12.166 19.695 12.342 19.765 12.519 19.769 C 12.697 19.773 12.875 19.712 13.016 19.585 L 13.031 19.572 L 13.046 19.559 L 16.457 16.148 L 16.461 8.315 L 13.055 4.91 C 12.919 4.773 12.743 4.703 12.566 4.699 C 12.389 4.695 12.21 4.756 12.069 4.883 L 12.069 4.881 L 12.069 4.88 Z" fill="#715EC2"/>
  <rect x="13.855" y="8.289" width="8.319" height="7.947" style="stroke-opacity: 0; stroke: rgb(255, 255, 255); fill: rgb(255, 255, 255);"/>
</svg>
