<?xml version="1.0" encoding="utf-8"?>
<svg xmlns="http://www.w3.org/2000/svg" viewBox="399.5845 236.3717 17.5348 20.0025" width="17.5348px" height="20.0025px">
  <path fill-rule="evenodd" clip-rule="evenodd" d="M 411.627 237.214 L 411.612 255.532 C 410.489 256.655 408.669 256.655 407.547 255.532 L 400.426 248.414 C 399.304 247.292 399.304 245.471 400.426 244.349 L 407.561 237.214 C 408.684 236.091 410.504 236.091 411.627 237.214 Z M 409.112 239.019 L 409.082 239.046 L 402.261 245.868 C 401.989 246.14 401.982 246.572 402.234 246.857 L 402.261 246.886 L 409.073 253.698 C 409.345 253.97 409.777 253.977 410.059 253.724 L 410.089 253.698 L 416.91 246.876 C 417.189 246.597 417.189 246.142 416.91 245.86 L 410.098 239.049 C 409.826 238.776 409.394 238.769 409.112 239.022 L 409.112 239.019 Z M 409.717 242.021 L 413.935 246.242 C 414.006 246.312 414.006 246.424 413.935 246.497 L 409.709 250.723 C 409.639 250.794 409.525 250.794 409.454 250.723 L 409.462 242.021 C 409.532 241.95 409.646 241.95 409.717 242.021 Z" fill="#715EC2"/>
</svg>
