<?xml version="1.0" encoding="UTF-8"?>
<svg id="Layer_1" xmlns="http://www.w3.org/2000/svg" version="1.1" viewBox="0 0 200.17 160">
  <!-- Generator: Adobe Illustrator 29.4.0, SVG Export Plug-In . SVG Version: 2.1.0 Build 152)  -->
  <defs>
    <style>
      .st0 {
        fill: #715ec2;
      }
    </style>
  </defs>
  <path class="st0" d="M157.51,107.47c-3.65-3.65-9.52-3.72-13.23-.2h0l-.07.06s-.07.06-.1.09h0l-31.09,31.09-.23.21c-2.25,2.03-5.71,1.97-7.89-.21l-54.49-54.49-.21-.23c-2.03-2.27-1.97-5.73.21-7.91l54.56-54.56.23-.21v.02c2.25-2.03,5.71-1.97,7.89.21l31.35,31.35.04-.04c3.73,3.35,9.45,3.24,13.04-.35,3.59-3.59,3.7-9.31.34-13.04.02-.02.03-.02.03-.02L125.33,6.68c-8.98-8.98-23.54-8.98-32.52,0l-57.08,57.07c-8.98,8.98-8.98,23.54,0,32.52l56.95,56.94c8.98,8.98,23.54,8.98,32.52,0l32.34-32.34h0s.06-.06.09-.1l.47-.47h0l-.02-.03c3.13-3.71,2.94-9.28-.58-12.8h.01Z"/>
</svg>